<mxfile host="app.diagrams.net" agent="Mozilla/5.0 (Windows NT 10.0; Win64; x64) AppleWebKit/537.36 (KHTML, like Gecko) Chrome/138.0.0.0 Safari/537.36" version="28.0.7">
  <diagram name="Page-1" id="VZC06zwxdk3FMl8e_OP_">
    <mxGraphModel dx="872" dy="465" grid="1" gridSize="10" guides="1" tooltips="1" connect="1" arrows="1" fold="1" page="1" pageScale="1" pageWidth="850" pageHeight="1100" math="0" shadow="0">
      <root>
        <mxCell id="0" />
        <mxCell id="1" parent="0" />
        <mxCell id="kPW779YlNrj0aBlaMCU3-1" value="Data Base Connection" style="rounded=0;whiteSpace=wrap;html=1;" parent="1" vertex="1">
          <mxGeometry x="20" y="100" width="120" height="60" as="geometry" />
        </mxCell>
        <mxCell id="kPW779YlNrj0aBlaMCU3-2" value="-instance: Database" style="rounded=0;whiteSpace=wrap;html=1;" parent="1" vertex="1">
          <mxGeometry x="20" y="150" width="120" height="60" as="geometry" />
        </mxCell>
        <mxCell id="kPW779YlNrj0aBlaMCU3-3" value="&lt;div&gt;&lt;br&gt;&lt;/div&gt;+getInstance()&lt;div&gt;&lt;br&gt;&lt;div&gt;+connect ()&lt;br&gt;&lt;div&gt;&lt;br&gt;&lt;/div&gt;&lt;/div&gt;&lt;/div&gt;" style="rounded=0;whiteSpace=wrap;html=1;" parent="1" vertex="1">
          <mxGeometry x="20" y="210" width="120" height="60" as="geometry" />
        </mxCell>
        <mxCell id="kPW779YlNrj0aBlaMCU3-4" value="User" style="rounded=0;whiteSpace=wrap;html=1;" parent="1" vertex="1">
          <mxGeometry x="230" y="100" width="170" height="60" as="geometry" />
        </mxCell>
        <mxCell id="kPW779YlNrj0aBlaMCU3-5" value="+showRole()" style="rounded=0;whiteSpace=wrap;html=1;" parent="1" vertex="1">
          <mxGeometry x="230" y="160" width="170" height="60" as="geometry" />
        </mxCell>
        <mxCell id="kPW779YlNrj0aBlaMCU3-11" value="Customer" style="rounded=0;whiteSpace=wrap;html=1;" parent="1" vertex="1">
          <mxGeometry x="170" y="330" width="90" height="50" as="geometry" />
        </mxCell>
        <mxCell id="kPW779YlNrj0aBlaMCU3-16" value="Admin" style="rounded=0;whiteSpace=wrap;html=1;" parent="1" vertex="1">
          <mxGeometry x="275" y="330" width="80" height="50" as="geometry" />
        </mxCell>
        <mxCell id="kPW779YlNrj0aBlaMCU3-17" value="DeliveryBoy" style="rounded=0;whiteSpace=wrap;html=1;" parent="1" vertex="1">
          <mxGeometry x="370" y="330" width="80" height="50" as="geometry" />
        </mxCell>
        <mxCell id="kPW779YlNrj0aBlaMCU3-18" value="" style="endArrow=none;html=1;rounded=0;" parent="1" edge="1">
          <mxGeometry width="50" height="50" relative="1" as="geometry">
            <mxPoint x="190" y="290" as="sourcePoint" />
            <mxPoint x="420" y="290" as="targetPoint" />
            <Array as="points">
              <mxPoint x="300" y="290" />
            </Array>
          </mxGeometry>
        </mxCell>
        <mxCell id="kPW779YlNrj0aBlaMCU3-21" value="" style="endArrow=classic;html=1;rounded=0;entryX=0.2;entryY=0;entryDx=0;entryDy=0;entryPerimeter=0;" parent="1" edge="1">
          <mxGeometry width="50" height="50" relative="1" as="geometry">
            <mxPoint x="189.60000000000002" y="290" as="sourcePoint" />
            <mxPoint x="189.60000000000002" y="330" as="targetPoint" />
          </mxGeometry>
        </mxCell>
        <mxCell id="kPW779YlNrj0aBlaMCU3-22" value="" style="endArrow=classic;html=1;rounded=0;entryX=0.2;entryY=0;entryDx=0;entryDy=0;entryPerimeter=0;" parent="1" edge="1">
          <mxGeometry width="50" height="50" relative="1" as="geometry">
            <mxPoint x="299.6" y="290" as="sourcePoint" />
            <mxPoint x="299.6" y="330" as="targetPoint" />
          </mxGeometry>
        </mxCell>
        <mxCell id="kPW779YlNrj0aBlaMCU3-23" value="" style="endArrow=classic;html=1;rounded=0;entryX=0.2;entryY=0;entryDx=0;entryDy=0;entryPerimeter=0;" parent="1" edge="1">
          <mxGeometry width="50" height="50" relative="1" as="geometry">
            <mxPoint x="420" y="290" as="sourcePoint" />
            <mxPoint x="420" y="330" as="targetPoint" />
          </mxGeometry>
        </mxCell>
        <mxCell id="kPW779YlNrj0aBlaMCU3-24" value="UserFactory" style="rounded=0;whiteSpace=wrap;html=1;" parent="1" vertex="1">
          <mxGeometry x="225" y="400" width="170" height="60" as="geometry" />
        </mxCell>
        <mxCell id="kPW779YlNrj0aBlaMCU3-25" value="+createUser(role)" style="rounded=0;whiteSpace=wrap;html=1;" parent="1" vertex="1">
          <mxGeometry x="225" y="460" width="170" height="60" as="geometry" />
        </mxCell>
        <mxCell id="kPW779YlNrj0aBlaMCU3-26" value="OrderTracker" style="rounded=0;whiteSpace=wrap;html=1;" parent="1" vertex="1">
          <mxGeometry x="520" y="100" width="120" height="60" as="geometry" />
        </mxCell>
        <mxCell id="kPW779YlNrj0aBlaMCU3-27" value="+register()&lt;div&gt;+notifyAll()&lt;/div&gt;&lt;div&gt;+statusChange()&lt;/div&gt;" style="rounded=0;whiteSpace=wrap;html=1;" parent="1" vertex="1">
          <mxGeometry x="520" y="160" width="120" height="60" as="geometry" />
        </mxCell>
        <mxCell id="kPW779YlNrj0aBlaMCU3-28" value="+update()" style="rounded=0;whiteSpace=wrap;html=1;" parent="1" vertex="1">
          <mxGeometry x="690" y="160" width="120" height="60" as="geometry" />
        </mxCell>
        <mxCell id="kPW779YlNrj0aBlaMCU3-29" value="Observer" style="rounded=0;whiteSpace=wrap;html=1;" parent="1" vertex="1">
          <mxGeometry x="690" y="100" width="120" height="60" as="geometry" />
        </mxCell>
        <mxCell id="kPW779YlNrj0aBlaMCU3-30" value="" style="endArrow=classic;startArrow=classic;html=1;rounded=0;" parent="1" edge="1">
          <mxGeometry width="50" height="50" relative="1" as="geometry">
            <mxPoint x="640" y="134.23" as="sourcePoint" />
            <mxPoint x="690" y="134" as="targetPoint" />
          </mxGeometry>
        </mxCell>
        <mxCell id="kPW779YlNrj0aBlaMCU3-33" value="" style="endArrow=classic;html=1;rounded=0;exitX=0.5;exitY=1;exitDx=0;exitDy=0;" parent="1" source="kPW779YlNrj0aBlaMCU3-27" edge="1">
          <mxGeometry width="50" height="50" relative="1" as="geometry">
            <mxPoint x="590" y="240" as="sourcePoint" />
            <mxPoint x="580" y="280" as="targetPoint" />
          </mxGeometry>
        </mxCell>
        <mxCell id="kPW779YlNrj0aBlaMCU3-35" value="Customer" style="rounded=0;whiteSpace=wrap;html=1;" parent="1" vertex="1">
          <mxGeometry x="480" y="320" width="80" height="40" as="geometry" />
        </mxCell>
        <mxCell id="kPW779YlNrj0aBlaMCU3-36" value="Restaurant" style="rounded=0;whiteSpace=wrap;html=1;" parent="1" vertex="1">
          <mxGeometry x="575.4" y="320" width="80" height="40" as="geometry" />
        </mxCell>
        <mxCell id="kPW779YlNrj0aBlaMCU3-37" value="Delivery Partner" style="rounded=0;whiteSpace=wrap;html=1;" parent="1" vertex="1">
          <mxGeometry x="670" y="320" width="80" height="40" as="geometry" />
        </mxCell>
        <mxCell id="kPW779YlNrj0aBlaMCU3-38" value="" style="endArrow=none;html=1;rounded=0;" parent="1" edge="1">
          <mxGeometry width="50" height="50" relative="1" as="geometry">
            <mxPoint x="525.4" y="280" as="sourcePoint" />
            <mxPoint x="715.4" y="280" as="targetPoint" />
            <Array as="points">
              <mxPoint x="595.4" y="280" />
            </Array>
          </mxGeometry>
        </mxCell>
        <mxCell id="kPW779YlNrj0aBlaMCU3-39" value="" style="endArrow=classic;html=1;rounded=0;entryX=0.2;entryY=0;entryDx=0;entryDy=0;entryPerimeter=0;" parent="1" edge="1">
          <mxGeometry width="50" height="50" relative="1" as="geometry">
            <mxPoint x="525" y="280" as="sourcePoint" />
            <mxPoint x="525" y="320" as="targetPoint" />
          </mxGeometry>
        </mxCell>
        <mxCell id="kPW779YlNrj0aBlaMCU3-40" value="" style="endArrow=classic;html=1;rounded=0;entryX=0.2;entryY=0;entryDx=0;entryDy=0;entryPerimeter=0;" parent="1" edge="1">
          <mxGeometry width="50" height="50" relative="1" as="geometry">
            <mxPoint x="604.95" y="280" as="sourcePoint" />
            <mxPoint x="604.95" y="320" as="targetPoint" />
          </mxGeometry>
        </mxCell>
        <mxCell id="kPW779YlNrj0aBlaMCU3-41" value="" style="endArrow=classic;html=1;rounded=0;entryX=0.2;entryY=0;entryDx=0;entryDy=0;entryPerimeter=0;" parent="1" edge="1">
          <mxGeometry width="50" height="50" relative="1" as="geometry">
            <mxPoint x="715.4" y="280" as="sourcePoint" />
            <mxPoint x="715.4" y="320" as="targetPoint" />
          </mxGeometry>
        </mxCell>
        <mxCell id="kPW779YlNrj0aBlaMCU3-42" value="&#xa;&lt;h3 data-start=&quot;417&quot; data-end=&quot;467&quot;&gt;1. &lt;strong data-start=&quot;424&quot; data-end=&quot;467&quot;&gt;Singleton Pattern – Database Connection&lt;/strong&gt;&lt;/h3&gt;&#xa;&lt;h4 data-start=&quot;469&quot; data-end=&quot;485&quot;&gt;&lt;/h4&gt;&#xa;&#xa;" style="text;html=1;align=center;verticalAlign=middle;whiteSpace=wrap;rounded=0;fontStyle=1" parent="1" vertex="1">
          <mxGeometry x="10" y="90" width="190" height="20" as="geometry" />
        </mxCell>
        <mxCell id="kPW779YlNrj0aBlaMCU3-43" value="&#xa;2. &lt;strong data-start=&quot;1521&quot; data-end=&quot;1561&quot;&gt;Factory Pattern – User Role Creation&lt;/strong&gt;&#xa;&#xa;" style="text;whiteSpace=wrap;html=1;fontStyle=1" parent="1" vertex="1">
          <mxGeometry x="230" y="40" width="210" height="30" as="geometry" />
        </mxCell>
        <mxCell id="kPW779YlNrj0aBlaMCU3-45" value="" style="endArrow=none;dashed=1;html=1;dashPattern=1 3;strokeWidth=2;rounded=0;" parent="1" edge="1">
          <mxGeometry width="50" height="50" relative="1" as="geometry">
            <mxPoint x="460" y="640" as="sourcePoint" />
            <mxPoint x="460" y="70" as="targetPoint" />
          </mxGeometry>
        </mxCell>
        <mxCell id="kPW779YlNrj0aBlaMCU3-46" value="&lt;h3 data-start=&quot;3260&quot; data-end=&quot;3304&quot;&gt;3. &lt;strong data-start=&quot;3267&quot; data-end=&quot;3304&quot;&gt;Observer Pattern – Order Tracking&lt;/strong&gt;&lt;/h3&gt;&#xa;&lt;h4 data-start=&quot;3306&quot; data-end=&quot;3322&quot;&gt;&lt;/h4&gt;" style="text;whiteSpace=wrap;html=1;" parent="1" vertex="1">
          <mxGeometry x="525" y="40" width="310" height="100" as="geometry" />
        </mxCell>
        <mxCell id="kPW779YlNrj0aBlaMCU3-49" value="" style="endArrow=classic;html=1;rounded=0;exitX=0.5;exitY=1;exitDx=0;exitDy=0;" parent="1" source="kPW779YlNrj0aBlaMCU3-5" edge="1">
          <mxGeometry width="50" height="50" relative="1" as="geometry">
            <mxPoint x="310" y="250" as="sourcePoint" />
            <mxPoint x="315" y="290" as="targetPoint" />
          </mxGeometry>
        </mxCell>
        <mxCell id="kPW779YlNrj0aBlaMCU3-50" value="" style="endArrow=none;dashed=1;html=1;dashPattern=1 3;strokeWidth=2;rounded=0;" parent="1" edge="1">
          <mxGeometry width="50" height="50" relative="1" as="geometry">
            <mxPoint x="150" y="660" as="sourcePoint" />
            <mxPoint x="150" y="90" as="targetPoint" />
          </mxGeometry>
        </mxCell>
      </root>
    </mxGraphModel>
  </diagram>
</mxfile>
